<?xml version="1.0" encoding="UTF-8"?>
<svg id="Layer_2" data-name="Layer 2" xmlns="http://www.w3.org/2000/svg" viewBox="0 0 226.77 226.77">
  <defs>
    <style>
      .cls-1 {
        fill: #123150;
      }

      .cls-2 {
        fill: #fff;
      }

      .cls-3 {
        fill: #d7ed00;
      }
    </style>
  </defs>
  <g id="Layer_1-2" data-name="Layer 1">
    <circle class="cls-1" cx="113.39" cy="113.39" r="113.39"/>
    <g>
      <path class="cls-2" d="M109.39,126.94c-7.01,0-13.27-1.53-18.77-4.59-5.5-3.06-9.85-7.21-13.05-12.45-3.19-5.23-4.79-11.14-4.79-17.7s1.6-12.33,4.79-17.57c3.19-5.24,7.54-9.41,13.05-12.51,5.5-3.11,11.76-4.66,18.77-4.66h44.59v15.57h-13.85c1.86,2.75,3.3,5.75,4.33,8.98,1.02,3.24,1.53,6.63,1.53,10.18,0,6.57-1.59,12.47-4.79,17.7-3.2,5.24-7.54,9.38-13.05,12.45-5.5,3.06-11.76,4.59-18.77,4.59ZM109.39,111.37c3.73,0,6.94-.84,9.65-2.53,2.71-1.69,4.79-3.97,6.25-6.85,1.46-2.88,2.2-6.14,2.2-9.78s-.73-6.79-2.2-9.72c-1.46-2.93-3.55-5.28-6.25-7.06-2.71-1.77-5.93-2.66-9.65-2.66s-6.94.89-9.65,2.66c-2.71,1.78-4.79,4.13-6.26,7.06-1.46,2.93-2.19,6.17-2.19,9.72s.73,6.9,2.19,9.78c1.46,2.88,3.55,5.17,6.26,6.85,2.71,1.69,5.93,2.53,9.65,2.53Z"/>
      <g>
        <path class="cls-3" d="M61.82,165.84c-.97,0-1.84-.24-2.61-.71-.77-.47-1.38-1.11-1.84-1.9-.45-.79-.68-1.68-.68-2.65,0-1.06.22-1.96.66-2.71.44-.75,1.04-1.33,1.8-1.75.76-.42,1.61-.63,2.56-.63h5.99v-1.36c0-.35-.13-.62-.38-.81-.25-.19-.56-.28-.91-.28h-8.07v-4.17h8.96c.99,0,1.89.24,2.7.71.8.47,1.45,1.1,1.93,1.89.48.78.73,1.65.73,2.6v6.38c0,.97-.25,1.87-.74,2.7-.5.83-1.16,1.48-1.98,1.97-.83.49-1.76.73-2.79.73h-5.33ZM63.18,161.7h3.24c.37,0,.68-.12.93-.35.24-.23.36-.53.36-.91v-1.82h-4.5c-.44,0-.81.15-1.11.46-.3.31-.45.67-.45,1.09,0,.26.06.51.18.74.12.23.3.42.55.56.24.14.51.22.79.22Z"/>
        <path class="cls-3" d="M100.16,153.07v-4.2h-4.66v-4.13h-5.16v4.17h-9.1c-1.57,0-2.79.44-3.67,1.32s-1.32,2.1-1.32,3.64v11.97h5.13v-11.64c0-.33.11-.6.33-.81.22-.21.48-.31.79-.31h7.84v7.81c0,1.52.44,2.73,1.32,3.62.88.89,2.11,1.34,3.67,1.34h4.83v-4.3h-3.7c-.26,0-.49-.09-.68-.28-.19-.19-.28-.41-.28-.68v-7.51h4.66Z"/>
        <path class="cls-2" d="M105.88,146.95c-.82,0-1.52-.3-2.12-.89s-.89-1.3-.89-2.12.3-1.53.89-2.13c.6-.61,1.3-.91,2.12-.91s1.52.3,2.12.91c.6.61.89,1.32.89,2.13s-.3,1.52-.89,2.12-1.3.89-2.12.89ZM103.3,165.84v-16.97h5.16v16.97h-5.16Z"/>
        <path class="cls-2" d="M120.56,165.84c-1.76,0-3.33-.37-4.7-1.11-1.37-.74-2.45-1.74-3.24-3.01-.79-1.27-1.19-2.72-1.19-4.35s.4-3.08,1.19-4.35c.79-1.27,1.87-2.28,3.24-3.03,1.37-.75,2.93-1.12,4.7-1.12h2.55v4.33h-2.35c-.86,0-1.6.18-2.22.55-.62.36-1.1.86-1.44,1.49-.34.63-.51,1.34-.51,2.13s.17,1.5.51,2.13c.34.63.82,1.12,1.44,1.49.62.36,1.36.55,2.22.55h2.35v4.3h-2.55Z"/>
        <path class="cls-2" d="M125.95,165.84v-24.18h5.13v13.63h2.48l3.77-6.42h5.62l-5.03,7.97,5.46,9h-5.95l-3.77-6.65h-2.58v6.65h-5.13Z"/>
        <path class="cls-2" d="M145.27,165.84v-24.15h5.13v24.15h-5.13Z"/>
        <path class="cls-2" d="M163.07,165.84c-1.92,0-3.61-.36-5.06-1.08-1.46-.72-2.59-1.71-3.39-2.98-.81-1.27-1.21-2.74-1.21-4.42,0-1.85.39-3.44,1.16-4.76.77-1.32,1.8-2.34,3.09-3.06,1.29-.72,2.72-1.07,4.28-1.07,1.79,0,3.28.38,4.48,1.12,1.2.75,2.11,1.77,2.73,3.06.62,1.29.93,2.76.93,4.42,0,.29-.02.62-.05,1.01-.03.39-.07.69-.12.91h-11.11c.13.57.39,1.06.76,1.46.37.4.85.69,1.42.88.57.19,1.21.28,1.92.28h5.19v4.23h-5.03ZM158.67,155.78h6.45c-.04-.35-.11-.69-.2-1.03-.09-.33-.23-.62-.41-.88-.19-.25-.4-.47-.65-.66-.24-.19-.52-.34-.84-.45-.32-.11-.68-.17-1.08-.17-.51,0-.96.09-1.36.26-.4.18-.73.41-.99.71-.26.3-.47.64-.61,1.03-.14.39-.25.78-.31,1.17Z"/>
      </g>
    </g>
  </g>
</svg>